<?xml version="1.0" encoding="UTF-8" standalone="no"?>
<!-- Created with Inkscape (http://www.inkscape.org/) -->

<svg
   xmlns:dc="http://purl.org/dc/elements/1.1/"
   xmlns:cc="http://creativecommons.org/ns#"
   xmlns:rdf="http://www.w3.org/1999/02/22-rdf-syntax-ns#"
   xmlns:svg="http://www.w3.org/2000/svg"
   xmlns="http://www.w3.org/2000/svg"
   xmlns:sodipodi="http://sodipodi.sourceforge.net/DTD/sodipodi-0.dtd"
   xmlns:inkscape="http://www.inkscape.org/namespaces/inkscape"
   width="581.10236"
   height="442.91336"
   id="svg3940"
   version="1.1"
   inkscape:version="0.48.4 r9939"
   sodipodi:docname="tuerv.svg">
  <defs
     id="defs3942" />
  <sodipodi:namedview
     id="base"
     pagecolor="#ffffff"
     bordercolor="#666666"
     borderopacity="1.0"
     inkscape:pageopacity="0.0"
     inkscape:pageshadow="2"
     inkscape:zoom="0.7"
     inkscape:cx="-278.54051"
     inkscape:cy="10.028113"
     inkscape:document-units="px"
     inkscape:current-layer="layer1"
     showgrid="false"
     inkscape:window-width="2560"
     inkscape:window-height="1058"
     inkscape:window-x="0"
     inkscape:window-y="0"
     inkscape:window-maximized="1"
     units="mm" />
  <metadata
     id="metadata3945">
    <rdf:RDF>
      <cc:Work
         rdf:about="">
        <dc:format>image/svg+xml</dc:format>
        <dc:type
           rdf:resource="http://purl.org/dc/dcmitype/StillImage" />
        <dc:title></dc:title>
      </cc:Work>
    </rdf:RDF>
  </metadata>
  <g
     inkscape:label="Layer 1"
     inkscape:groupmode="layer"
     id="layer1"
     transform="translate(0,-609.44893)">
    <path
       style="fill:none;stroke:#000000;stroke-width:1;stroke-linecap:square;stroke-linejoin:bevel;stroke-miterlimit:4;stroke-opacity:1;stroke-dasharray:none"
       d="m 307.95784,929.97399 c -0.3648,0.55395 -0.66689,1.16018 -0.90783,1.80851 -1.71387,4.61024 0.62758,9.74592 5.2379,11.45973 4.03399,1.49957 8.45734,-0.11138 10.64988,-3.62587 0.31366,-0.50181 0.57539,-1.04884 0.78989,-1.62503 1.71381,-4.61032 -0.62762,-9.74589 -5.23799,-11.4598 -0.91167,-0.33891 -1.84275,-0.50904 -2.76444,-0.54418 m -16.34908,-9.48773 8.58206,13.4745 m 7.76705,-3.9868 -9.16718,-14.40041 m -8.77519,4.92268 c 0.53173,0.0419 1.06836,0.0379 1.59326,-0.01 m -8.77928,-4.94674 -8.31705,12.74847 m 7.99516,3.74808 7.50798,-11.53977 m -15.5031,7.79178 c -3.33913,0.27294 -6.38183,2.43208 -7.62635,5.77983 -1.71383,4.61033 0.6276,9.7459 5.23796,11.45981 4.61029,1.71383 9.74588,-0.62766 11.45973,-5.23799 1.0644,-2.86319 0.56171,-5.93318 -1.07617,-8.25358 l 0,0 m 0.30791,-24.29524 c -0.1244,0.25682 -0.23655,0.51855 -0.33789,0.79162 -0.88397,2.378 -0.67678,4.89113 0.35192,7.00705 l 10e-6,0 m 7.17393,-12.76523 -16.30883,-20.45366 m -7.19511,4.93306 16.31604,20.48723 m -24.7223,-24.76039 c 0.68007,1.13735 1.61251,2.13738 2.79921,2.90354 1.73404,1.11952 3.69907,1.54055 5.60705,1.36962 m -31.56117,-3.84495 23.15491,-0.42821 m -0.26271,-8.70932 -23.15484,0.42829 m -8.49475,13.47035 c 3.20992,0.30586 6.48109,-1.14601 8.35116,-4.04244 0.15319,-0.23744 0.27831,-0.47299 0.40624,-0.71867 l 1e-5,0 m -15.90395,-0.25669 -8.24875,12.82133 m 7.14656,5.0178 8.24877,-12.82135 m -15.39541,7.80361 c -3.21307,-0.31417 -6.49991,1.13044 -8.37151,4.0294 -2.66785,4.13221 -1.46338,9.64324 2.6686,12.3111 4.1323,2.66781 9.63022,1.48375 12.29798,-2.64841 1.74022,-2.69534 1.83911,-5.97692 0.55157,-8.67435 l -8e-5,4e-5 m 2.47126,-27.6011 c -0.29713,0.33501 -0.58764,0.68666 -0.83804,1.07457 -1.74128,2.69715 -1.82248,5.98344 -0.53099,8.68738 l -5e-5,-9e-5 m 9.65075,-12.57982 -9.02776,-20.91712 m -8.11499,3.18518 8.86105,20.54992 m -4.10224,-37.52862 c -3.93186,-1.72144 -8.64021,-0.38059 -11.04392,3.34263 -2.66781,4.13218 -1.48382,9.63013 2.64842,12.29797 1.13766,0.73448 2.37794,1.16911 3.63671,1.33809 m 10.01132,-10.01013 17.63396,-14.66722 m -5.37208,-6.8726 -17.51441,14.57126 m 22.57301,-23.97071 c -1.47445,0.68704 -2.79048,1.77501 -3.73742,3.24175 -1.22735,1.90103 -1.63709,4.08371 -1.32118,6.1577 m 6.41874,-34.8328 -1.36016,25.43335 m 8.5737,0.57304 c 0.0415,0.0265 0.0813,0.0517 0.12214,0.0789 l 1.34373,-25.18435 m -12.28804,-9.92397 c -0.67684,3.3665 0.65521,6.94434 3.60898,9.02289 m 2.18293,-15.67009 -21.84935,-14.10616 m -5.71016,6.69958 21.76792,14.05361 m -29.3889,-14.76163 c 1.19613,0.7214 2.5814,1.15865 4.07238,1.24436 1.24687,0.0716 2.44495,-0.13482 3.5486,-0.53633 m -11.92974,-8.42319 -12.53684,10.16839 m 4.69387,7.38679 12.15173,-9.84001 m -16.8456,2.45322 c -1.10804,-0.59514 -2.34118,-0.97154 -3.67956,-1.0485 -4.9105,-0.28229 -9.13451,3.46399 -9.41686,8.37448 -0.28221,4.9104 3.47712,9.11421 8.38765,9.39648 4.91043,0.28223 9.11412,-3.47721 9.3964,-8.38766 0.0187,-0.325 0.0221,-0.63007 0.006,-0.94801 m 7.95769,-18.8948 c -0.0459,0.29113 -0.0907,0.58177 -0.10803,0.8823 -0.009,0.15352 -0.006,0.30529 -0.007,0.45731 m 5.54702,-8.1898 -12.17355,-10.36939 m -6.2901,6.1233 13.03137,11.09627 m -6.74127,-17.21957 c 0.18294,-0.63109 0.30822,-1.28436 0.34751,-1.96825 0.28229,-4.91045 -3.47709,-9.11412 -8.38757,-9.39643 -4.91045,-0.28232 -9.13456,3.46402 -9.41679,8.37444 -0.28233,4.91047 3.47702,9.11415 8.38752,9.39645 0.96306,0.0554 1.89445,-0.0497 2.77922,-0.2829 m 19.97624,3.78015 c -0.52121,0.10979 -1.02764,0.26932 -1.51255,0.46603 m 9.82742,2.16138 4.18773,-14.66428 m -8.7239,-1.18928 -3.7787,13.22615 m 12.5026,-12.03687 c 3.11599,-1.24095 5.4022,-4.17754 5.60737,-7.74687 0.2823,-4.91046 -3.47713,-9.11422 -8.3876,-9.39652 -4.91043,-0.28223 -9.11418,3.47713 -9.39646,8.38758 -0.17543,3.05191 1.20206,5.83069 3.45279,7.56653 m 6.80171,23.60554 c 0.072,-0.37884 0.11496,-0.75622 0.13768,-1.15165 0.1458,-2.53624 -0.79429,-4.87891 -2.40317,-6.60037 l -5e-5,4e-5 m 32.00907,22.85804 c -2.55173,-1.30254 -5.63604,-1.75119 -7.89423,-0.99986 m 29.77416,-8.84894 -21.87991,9.84879 m 3.94014,7.79454 21.98643,-9.92427 m 1.26244,-15.62964 c -1.54557,0.68013 -2.92695,1.80779 -3.91083,3.33176 -0.91833,1.42235 -1.35598,3.00392 -1.39827,4.57882 m 13.98128,-7.04326 1.23782,-18.67484 m -8.68196,-1.07561 -1.22804,18.88313 m 9.90965,-17.80734 c 1.62376,-0.66678 3.08044,-1.82209 4.10469,-3.40854 2.66782,-4.13219 1.46343,-9.64328 -2.66879,-12.31112 -4.13217,-2.66776 -9.63013,-1.48379 -12.29787,2.64847 -2.56425,3.97172 -1.57058,9.22508 2.18001,11.99548 m 11.19304,27.79668 c 0.25877,-3.06786 -1.07584,-6.17154 -3.7489,-8.04613 m 24.21362,21.25839 -20.46472,-13.21226 m -4.91597,7.21233 20.30178,13.10705 m 13.74721,-6.50186 c -0.0205,-0.0128 -0.0405,-0.0259 -0.0613,-0.0398 -2.67522,-1.72717 -5.92179,-1.82835 -8.60722,-0.56585 l -2e-5,2e-5 m 32.00028,-11.5373 -23.33198,12.14256 m 4.02033,7.75973 22.74455,-11.85823 0.58458,0.43516 c 2.13472,1.37822 4.63983,1.71365 6.92838,1.15527 l -10e-6,10e-6 m -6.49381,-16.39621 c -1.21402,0.68361 -2.28184,1.65749 -3.09017,2.90948 -0.77267,1.19689 -1.21383,2.52653 -1.3619,3.85224 m 13.28011,-6.7169 -2.64131,-15.92851 m -8.77374,0.45185 2.58692,15.43177 m 6.18682,-15.88362 c 1.05847,-0.66944 1.99296,-1.56755 2.71686,-2.68895 2.66781,-4.13219 1.46346,-9.64328 -2.66875,-12.31102 -4.13221,-2.66785 -9.63012,-1.48381 -12.29793,2.64839 -2.6678,4.13218 -1.49694,9.65044 2.63526,12.3183 0.27224,0.17574 0.5578,0.34263 0.84082,0.48513 m 12.54223,16.23321 c -0.23446,-0.18747 -0.46935,-0.36077 -0.7271,-0.52714 -0.12911,-0.0834 -0.26832,-0.15355 -0.40002,-0.22956 l 3e-5,10e-5 m 17.19007,-5.08698 -16.0629,5.84354 m 18.27166,2.62192 c 0.46183,0.47553 0.97798,0.91991 1.55869,1.29485 4.13217,2.66777 9.64325,1.46338 12.31105,-2.66881 2.66781,-4.13218 1.48379,-9.63011 -2.64843,-12.29798 -4.13217,-2.66775 -9.6505,-1.49693 -12.31826,2.63535 -0.52513,0.81325 -0.87847,1.68305 -1.11181,2.57113 m -19.52437,21.43829 10.66824,10.86888 m 5.34955,-6.9901 -9.63771,-9.8285 0.34675,-1.56484 15.0063,-5.45827 m -11.06489,23.84171 c -0.45606,3.32122 0.99151,6.75637 3.99376,8.69468 4.13222,2.66784 9.63014,1.4838 12.29796,-2.6484 2.66779,-4.13218 1.49693,-9.65044 -2.6353,-12.31829 -2.57229,-1.66071 -5.68404,-1.82553 -8.30687,-0.71809 m -51.20521,14.02521 c 1.37712,-0.68934 2.60832,-1.7163 3.50411,-3.10388 0.90758,-1.40582 1.37532,-2.97038 1.42589,-4.53214 m -13.64246,7.2329 -0.17314,23.8629 m 8.68197,1.0756 0.20353,-24.53566 m -8.8855,23.46006 c -1.62722,0.6675 -3.08051,1.822 -4.10471,3.40856 -0.78161,1.21054 -1.21193,2.54435 -1.35468,3.8857 m 17.73148,1.09033 c 0.0488,-2.7881 -1.20509,-5.53702 -3.5698,-7.29583 m -0.83715,14.83678 15.43506,9.96503 m 4.73276,-7.3306 -15.76087,-10.17538 m 11.02814,17.50608 c -0.18486,3.10314 1.25985,6.20839 4.05769,8.01472 4.13219,2.66776 9.65051,1.49693 12.31832,-2.63526 2.66782,-4.13219 1.46343,-9.64326 -2.66879,-12.3111 -2.79785,-1.80633 -6.22255,-1.84482 -8.97447,-0.39897 m -30.03316,-3.26239 c 0.18378,0.13987 0.36693,0.29461 0.56421,0.42203 2.91284,1.88049 6.50067,1.83677 9.30113,0.20594 m -33.20508,10.99027 23.33973,-11.61823 m -3.45919,-8.00331 -23.76093,11.77898 m -2.37545,15.83432 c 1.92785,-0.5965 3.66044,-1.82662 4.84059,-3.6547 0.8707,-1.34849 1.33477,-2.83859 1.41524,-4.33706 m -12.43969,29.09925 6.18383,-21.10747 m -8.54506,-1.82396 -6.22196,21.25601 m 10.79783,12.36617 c 1.80317,-3.65502 0.88218,-8.06336 -2.21464,-10.69075 m -8.58319,-1.67542 c -1.85065,0.61572 -3.51986,1.83217 -4.65996,3.59816 -0.14927,0.23114 -0.28097,0.47952 -0.40623,0.71866 m 8.35158,-33.26729 c -0.32784,2.83747 0.71871,5.73611 2.93697,7.69504 m -22.91293,-20.59175 19.97596,12.89671 m 5.10647,-7.06051 -19.85381,-12.81787 m -12.24674,7.0379 c 2.29182,0.9593 4.82708,0.90088 7.01812,-0.0562 m 5.22862,-6.98167 c 0.42422,-3.26275 -0.96354,-6.64134 -3.86435,-8.58229 m 32.46918,22.14534 c -0.0669,-0.0458 -0.12238,-0.10789 -0.1906,-0.15176 -2.6594,-1.71693 -5.88399,-1.82727 -8.56054,-0.59336 l 1e-5,-10e-6 m 34.01919,-50.68217 c -0.34663,3.23387 1.10087,6.53856 4.02346,8.42542 0.0336,0.0217 0.0677,0.0443 0.10173,0.0658 m -33.19454,-22.09433 c 2.72822,1.76139 6.05189,1.83372 8.76752,0.49616 m -36.09192,17.20462 c 1.5572,-0.6758 2.93422,-1.81895 3.924,-3.35209 0.88928,-1.3774 1.34766,-2.89678 1.41399,-4.42443 m -34.5938,70.07336 c 0.20456,-0.25159 0.36628,-0.52275 0.54621,-0.8014 1.19788,-1.85539 1.62065,-3.99276 1.35006,-6.02363 l 5e-5,8e-5 m 13.12202,31.86932 c -0.67802,-1.1238 -1.61506,-2.11013 -2.792,-2.86997 -1.004,-0.64818 -2.09163,-1.0497 -3.19852,-1.2572 m 68.7427,35.09118 c -0.92866,-1.03099 -2.1205,-1.86521 -3.51087,-2.38209 -1.29666,-0.48201 -2.62397,-0.62844 -3.91359,-0.50712 m 9.28631,11.53459 15.00455,-6.03632 m -2.32966,-8.45693 -14.53669,5.84796 m 16.86632,2.60898 c 0.88025,0.88483 1.93728,1.621 3.18386,2.08435 4.61031,1.71382 9.74594,-0.62756 11.45977,-5.2379 1.71384,-4.61033 -0.62759,-9.74591 -5.23789,-11.45973 -4.61036,-1.71391 -9.74595,0.62758 -11.45978,5.2379 -0.11351,0.30512 -0.19734,0.60976 -0.27554,0.91841 m -13.17399,15.75796 c 0.13266,-0.27011 0.25716,-0.54414 0.36423,-0.83231 0.0539,-0.14393 0.0896,-0.28717 0.13438,-0.43248"
       id="path2996-6-92-0"
       inkscape:connector-curvature="0"
       sodipodi:nodetypes="csssssccccccccccccssscccccccccccccccccccscccccccccccccccccccccccccccccccccccccccccccccccccccccccccccccccccccccccccccccccccccccccccsccccccccccccccccccccccccccccccccccccsccccsscsccccsccccccccccscccscccccccccccccccccccccccccccccccccccccccccccccccccccccccccccccsccccccscccccccccccccc" />
  </g>
</svg>
